<?xml version="1.0" encoding="UTF-8" standalone="no"?><!DOCTYPE svg PUBLIC "-//W3C//DTD SVG 1.1//EN" "http://www.w3.org/Graphics/SVG/1.1/DTD/svg11.dtd"><svg width="100%" height="100%" viewBox="0 0 2134 2134" version="1.1" xmlns="http://www.w3.org/2000/svg" xmlns:xlink="http://www.w3.org/1999/xlink" xml:space="preserve" xmlns:serif="http://www.serif.com/" style="fill-rule:evenodd;clip-rule:evenodd;stroke-linecap:round;stroke-linejoin:round;stroke-miterlimit:1.5;"><rect x="-176.476" y="-158.042" width="2555.526" height="2521.974" style="fill:#1e1e1e;stroke:#1e1e1e;stroke-width:105.33px;"/><path d="M1066.667,643.256c276.664,7.959 422.697,-48.841 489.297,120.227c274.452,696.719 111.839,721.363 5.592,726.955c-106.247,5.592 -301.966,-215.291 -301.966,-215.291l-385.845,0c0,0 -195.719,220.882 -301.966,215.291c-106.247,-5.592 -268.86,-30.236 5.592,-726.955c66.599,-169.068 212.633,-112.268 489.297,-120.227Z" style="fill:none;stroke:#ebebeb;stroke-width:50.45px;"/><path d="M733.945,1028.323l-93.75,0l0,-104.167l93.75,0l0,-93.75l104.167,0l0,93.75l93.75,0l0,104.167l-93.75,0l0,93.75l-104.167,0l0,-93.75Z" style="fill:none;stroke:#ebebeb;stroke-width:31.09px;"/><path d="M1200.874,947.837l141.197,141.197l324.334,-324.334" style="fill:none;stroke:#00ff76;stroke-width:105.33px;"/></svg>