<?xml version="1.0" encoding="UTF-8" standalone="no"?><!DOCTYPE svg PUBLIC "-//W3C//DTD SVG 1.1//EN" "http://www.w3.org/Graphics/SVG/1.1/DTD/svg11.dtd"><svg width="100%" height="100%" viewBox="0 0 2134 2134" version="1.1" xmlns="http://www.w3.org/2000/svg" xmlns:xlink="http://www.w3.org/1999/xlink" xml:space="preserve" xmlns:serif="http://www.serif.com/" style="fill-rule:evenodd;clip-rule:evenodd;stroke-linecap:round;stroke-linejoin:round;stroke-miterlimit:1.5;"><path d="M1066.667,444.886c407.522,11.723 622.627,-71.942 720.727,177.093c404.263,1026.257 164.738,1062.558 8.237,1070.794c-156.501,8.237 -444.792,-317.12 -444.792,-317.12l-568.345,0c0,0 -288.291,325.357 -444.792,317.12c-156.501,-8.237 -396.027,-44.537 8.237,-1070.794c98.1,-249.035 313.205,-165.37 720.727,-177.093Z" style="fill:none;stroke:#ebebeb;stroke-width:50.45px;"/><path d="M576.572,1012.085l-138.092,0l0,-153.436l138.092,0l0,-138.092l153.436,0l0,138.092l138.092,0l0,153.436l-138.092,0l0,138.092l-153.436,0l0,-138.092Z" style="fill:none;stroke:#ebebeb;stroke-width:31.09px;"/><path d="M1264.352,893.531l207.981,207.981l477.739,-477.739" style="fill:none;stroke:#00ff76;stroke-width:105.33px;"/></svg>
